<svg enable-background="new 0 0 313.85345 175.01192" viewBox="0 0 313.85345 175.01192" xmlns="http://www.w3.org/2000/svg"><ellipse cx="257.96" cy="159.6" opacity=".05" rx="42.814" ry="10.982"/><ellipse cx="257.96" cy="160.67" opacity=".05" rx="55.895" ry="14.338"/><path d="m232.28 97.5c-8.11 8.761-13.587 15.793-13.755 16.974-.167 1.181 11.641 9 11.345 11.07-.295 2.066-.443 6.937 0 7.675s26.13 16.384 26.13 16.384l27.01-19.19c.295-1.328.148-3.395 0-4.28-.148-.886 12.827-9.644 11.498-12.301s-11.498-13.825-13.565-15.744c-2.066-1.919-46.656-2.757-48.661-.59" fill="#181818"/><path d="m229.71 127.73c7.05.609 15.393.719 16.976.295 1.107-.297 1.619-2.771 1.774-5.48.198-3.464-18.334 1.785-18.585 3.54-.063.442-.12 1.014-.165 1.645"/><path d="m264.14 120.03c-.202 3.286.136 6.604 1.39 6.774 4.556.618 11.663 1.196 17.645 1.264-.032-.564-.104-1.566-.159-1.899-.122-.735-18.675-9.425-18.876-6.139"/><path d="m284.06 101.5c-1.391-1.611-2.542-2.879-3.114-3.411-2.066-1.919-46.656-2.757-48.661-.59-.959 1.036-1.879 2.046-2.76 3.03 6.288 4.432 15.476 7.213 28.09 7.213 11.535 0 20.22-2.378 26.441-6.239"/><path d="m266 114.12c-3.708-3.318-6.237-5.05-8.323-4.768-2.085.279-1.718 5.418-1.154 7.174s3.492 6.765 8.891 7.091l.585-9.497"/><path d="m266.26 112.51c-3.708-3.318-6.237-5.05-8.323-4.768s-1.718 5.418-1.154 7.174 3.492 6.765 8.891 7.091l.585-9.497" fill="#dbdcde"/><path d="m256.36 111.95c.037 1.175.221 2.31.433 2.968.564 1.756 3.492 6.765 8.891 7.091l.14-2.276s-6.282-1.484-9.464-7.783" fill="#b4b5b7"/><path d="m266.8 111.56c1.9-.09 20.04-.633 24.351-.357 1.756.112 3.773 2.169 4.394 4.92.904 4.01-.377 9.08-3.098 9.59-5.557 1.048-18.953.175-26.11-.796-2.508-.34-1.353-13.271.459-13.357" fill="#181818"/><path d="m266.8 111.56c1.9-.09 20.04-.633 24.351-.357 1.756.112 3.773 2.169 4.394 4.92-10.336-4.179-30.899 3.765-30.398-.028.326-2.469.938-4.501 1.653-4.535" fill="#262626"/><path d="m248.01 116.83c3.354-2.924 5.333-3.44 6.881-1.72s3.505 3.974 3.86 5.169 1.903 3.432-1.71 4.464c-3.612 1.032-7.569-.258-10.235 0 .43-1.806 1.462-6.709 1.204-7.913"/><path d="m247.2 115.21c3.354-2.924 5.333-3.44 6.881-1.72s3.505 3.974 3.86 5.169 1.903 3.432-1.71 4.464-7.569-.258-10.235 0c.43-1.806 1.462-6.709 1.204-7.913" fill="#dbdcde"/><path d="m247.3 122.48c2.402.087 5.154-.48 5.984-1-1 .786-.655 1.552 0 1.727-3.189.044-5.825-.06-6.203-.154-.365-.091.218-.568.218-.568" fill="#b4b5b7"/><path d="m222.3 110.66c2.502.162 24.1 2.231 24.949 2.522s1.415 12.278-1.107 12.954c-2.523.676-22.21-.005-26.483-1.898-1.359-.602-1.784-3.105-1.776-6.25.009-3.704 2.104-7.479 4.417-7.329" fill="#181818"/><path d="m222.3 110.66c2.502.162 24.1 2.231 24.949 2.522.283.097.535 1.495.651 3.339-4.288 3.111-25.2-4.578-29.402-2.058.791-2.232 2.247-3.904 3.802-3.803" fill="#262626"/><g fill="#181818"><ellipse cx="270.47" cy="27.09" rx="9.12" ry="27.11" transform="matrix(-.99828 -.05866 .05866 -.99828 538.89 70)"/><ellipse cx="244.58" cy="27.07" rx="9.446" ry="27.11" transform="matrix(.99846 -.0555 .0555 .99846 -1.125 13.615)"/></g><path d="m257.62 103.97c61.51 0 41.476-67.49 1.089-67.49-42.46 0-63.25 67.49-1.089 67.49" fill="#262626"/><path d="m257.62 103.97c32.06 0 42.11-18.367 38.38-35.895-2.46-11.568-18.613-21.474-37.949-21.474-19.901 0-35.16 7.538-38.458 20.463-4.557 17.872 5 36.906 38.02 36.906" fill="#181818"/><path d="m257.62 95.59c26.344 0 31.507-12.921 22.1-20.575-4.276-3.479-11.534-5.334-21.23-5.334-9.423 0-16.923 1.789-21.663 5.116-10.868 7.63-7.253 20.792 20.792 20.792" fill="#b4b5b7"/><path d="m257.61 95c12.211 0 19.494-2.482 23.453-6.02 3.794-3.389 3.332-7.327-1.347-10.919-4.372-3.357-11.97-4.03-21.665-4.03-9.423 0-16.182 1.419-21.23 4.262-4.03 2.269-6.694 7.612-2.201 11.602 3.799 3.373 11.197 5.102 22.988 5.102" fill="#dbdcde"/><path d="m243.59 89.75c4.776-.329 5.642-2.76 5.642-3.312s-.859-.797-1.043 0-1.32 1.901-4.57 2.085-4.629-1.595-4.875-2.208c-.245-.613-1.043-.123-.613.613.429.736 1.901 3.066 5.458 2.821" fill="#b4b5b7"/><path d="m243.59 89.21c4.776-.329 5.642-2.76 5.642-3.312s-.859-.797-1.043 0-1.32 1.901-4.57 2.085-4.629-1.595-4.875-2.208c-.245-.613-1.043-.123-.613.613.429.736 1.901 3.066 5.458 2.821" fill="#181818"/><path d="m272.79 89.48c-4.783-.208-5.71-2.616-5.724-3.168s.838-.819 1.042-.026c.204.792 1.367 1.867 4.621 1.969s4.587-1.711 4.817-2.33 1.039-.149.629.598-1.823 3.114-5.385 2.958" fill="#b4b5b7"/><path d="m272.77 88.94c-4.783-.208-5.71-2.616-5.724-3.168s.838-.819 1.042-.026c.204.792 1.367 1.867 4.621 1.969s4.588-1.711 4.817-2.33c.23-.619 1.039-.149.629.598s-1.823 3.114-5.385 2.958" fill="#181818"/><path d="m256.35 116.39c.288-.088 1.538 1.621 1.656 2.266.118.646.315 1.098.492 1.571.177.472.079 1.091-.138 1.244-.216.153-1.134.319-1.403 0s-.137-3.074-.331-3.762c-.194-.689-.535-1.24-.276-1.318" fill="#b4b5b7"/><path d="m282.35 129.34c-5.071 3.113-19.891 13.323-22.969 15.242s-20.562 11.625-22.37 13.305c-1.808 1.679-1.674 5.296 2.07 7.363 3.743 2.067 9.04 3.353 12.269 3.097s18.342-8.01 19.892-8.91c1.55-.904 18.25-10.413 23.38-16.276 2.183-2.494.933-7.573-1.679-10.85-2.799-3.511-7.163-5.076-10.592-2.971" fill="#181818"/><path d="m282.35 129.34c-5.071 3.113-19.891 13.323-22.969 15.242 26.05-13.721 36.17-8.994 33.561-12.271-2.799-3.511-7.163-5.076-10.592-2.971" fill="#262626"/><path d="m238.9 156.56c-.936.596-1.604 1.056-1.887 1.319-.339.315-.61.699-.802 1.127 4.885 2.701 12.778 6.837 16.753 8.947 1.034-.333 2.359-.857 3.824-1.485l-17.889-9.908"/><path d="m232.93 130.51c8.483 6.202 24.43 17.08 28.799 19.16 4.369 2.085 10.327 5.461 11.419 6.454s1.192 1.291 2.284 2.085 3.078 5.362-4.667 8.341-12.785 1.589-14.683.496c-1.899-1.092-21.467-11.22-23.15-12.61-1.684-1.39-13.11-8.142-15.04-11.617-1.932-3.475-2.233-9.177 6.309-14 2.323-1.312 6.356-.051 8.734 1.688" fill="#181818"/><g fill="#262626"><path d="m232.93 130.51c8.483 6.202 24.43 17.08 28.799 19.16 4.369 2.085-46.07-16.03-37.533-20.852 2.323-1.312 6.356-.051 8.734 1.688"/><path d="m25.299 55.35v2.991h-16.63v11.61h14.652v3.042h-14.652v17.593h-8.67v-35.24h25.299"/><path d="m39.09 90.59h-8.01v-37.26l8.01-2.231v39.495"/><path d="m57.49 91.2c-5.342 0-10.379-3.132-12.574-8.04-2.094-4.68-1.047-10.73 2.069-14.719 6.631-8.49 23.18-5.612 23.18 6.379-6.135 0-12.269 0-18.404 0 .125 5.585 3.548 13.449 10.392 10.397 1.319-.588 2.472-1.504 3.391-2.615.473-.572 1.063-2.303 1.555-2.483.903-.33 2.993.438 3.979.582-1.604 5.748-7.572 10.495-13.588 10.495m3.448-19.11c-.272-2.547-1.919-5.355-4.817-5.273-2.697.077-4.067 2.939-4.309 5.273z"/><path d="m77.47 90.59h-5.729l11.05-13.385-10.191-13.689h9.08l5.881 7.909 6.49-7.909h5.729l-9.531 11.56 11.56 15.514h-9.08l-7.25-9.734-8.01 9.734"/><path d="m103.93 53.32c2.704-.744 5.408-1.487 8.112-2.231v14.703c4.217-2.81 9.593-3.199 13.748-.053 3.838 2.907 5.215 7.788 4.42 12.409-1.791 10.419-12.958 15.362-22.379 11.65-.985-.388-3.491-1.323-3.902-2.313-.112-.269 0-.817 0-1.1 0-1.845 0-3.69 0-5.535 0-5.457 0-10.914 0-16.371 0-3.72 0-7.441 0-11.161m8.112 32.448c2.494 2.057 5.531 2.717 7.76-.137 1.7-2.176 2.235-5.247 2.317-7.934.087-2.831-.55-6.14-2.908-7.998-1.131-.891-2.477-1.226-3.886-.852-.975.258-2.903 1.16-3.283 2.174-.226.605 0 1.738 0 2.374v4.996z"/><path d="m148.4 91.1c-5.795 0-11.442-3-13.69-8.526-2.311-5.679-.4-12.637 4.552-16.26 10.161-7.432 26.857.702 23.455 14.04-1.649 6.465-7.75 10.75-14.318 10.75m.963-3.245c4.785 0 5.226-7.617 5-10.892-.277-4.02-1.633-10.299-6.808-10.286-4.895.012-5.354 7.697-5.02 11.11.374 3.765 2.02 10.07 6.823 10.07"/><path d="m169.03 90.59h-5.729l11.05-13.385-10.191-13.689h9.08l5.881 7.909 6.489-7.909h5.729l-9.532 11.56 11.56 15.514h-9.08l-7.25-9.734-8.01 9.734"/></g><g fill="#ed1c24"><path d="m76.12 151.47c-1.182-2.893 1.739-7.131 3.197-9.503.933-1.518 1.96-2.978 3.088-4.359.498-.61 1.016-1.203 1.553-1.78.214-.23.517-.466.691-.726.655-.975.201-.344-.001-1.29-.782-3.666.047-6.302 2.561-9.166 2.284-2.602 5.156-4.766 8.102-6.557 5.03-3.061 10.65-5.105 16.17-7.116 1.674-.61 3.702-1.668 5.515-1.364 1.605.269 1.1.888.763 2.341-.447 1.926-.871 3.858-1.273 5.794-1.75 8.44-3.365 17.192-3.554 25.83 2.449-8.602 6.177-16.988 11.22-24.392 2.503-3.674 5.316-7.168 8.488-10.284 1.561-1.533 3.176-2.921 5.323-3.534 1.086-.31 2.287-.454 3.411-.289.154.023 2.103.701 1.865.819-6.621 3.311-11.681 9.908-15.908 15.792-4.474 6.228-8.629 12.905-11.538 20.02-.735 1.798-1.417 3.654-1.888 5.541-.162.65-.11 1.902-.45 2.451-.391.632.161.283-.813.377-1.211.118-2.806-1.14-3.295-2.177-.65-1.378-.494-3.368-.574-4.863-.409-7.647.563-15.333 2.417-22.744-1.93 3.85-4.704 7.471-7.236 10.941-2.65 3.632-5.508 7.12-8.556 10.425-2.771 3-5.82 5.774-9.144 8.155-1.619 1.16-3.212 2.343-5.229 2.671-.704.114-4.902.158-4.902-1.014m.813-.407c8.429-3.846 15.245-10.962 21.375-17.737 3.02-3.337 5.939-6.764 8.677-10.335 1.415-1.845 2.787-3.724 4.112-5.635.516-.745 1.105-1.498 1.51-2.313.433-.872.568-1.857 1.077-2.706-5.763 2.789-11.545 5.62-16.867 9.203-2.404 1.618-4.633 3.4-6.647 5.487-1.58 1.637-4.471 4.59-4.471 7.083 1.747-1.749 3.942-3.593 6.231-4.561 1.041-.44 2.185-.726 3.32-.727.126 0 3.282.601 2.815 1.029-.344.315-1.167.399-1.626.602-.633.279-1.254.648-1.853.996-1.257.732-2.436 1.593-3.603 2.46-2.321 1.724-4.49 3.647-6.508 5.718-3.349 3.437-6.085 7.12-7.951 11.553.135-.039.271-.078.406-.116"/><path d="m139.98 117.09c0 .823.713-.213.813-.377.448-.737.789-1.595 1.193-2.363.414-.787.816-1.58 1.235-2.364.506-.944.559-1.023-.57-1.195-3.708-.565-5.629 4.01-2.671 6.299"/><path d="m170.9 116.86c.783.483.606.501 1.103-.145.433-.563.549-1.611.936-2.269.408-.694.927-1.292 1.404-1.936.584-.789.764-.802-.279-1.108-3.173-.931-6.298 3.537-3.164 5.458"/><path d="m194.15 126.04c-4.189-2.981-8.555 5.713-10.205 8.361 0-2.794.355-5.547.883-8.289.2-1.037.646-1.843-.549-1.174-.885.495-1.173 1.312-1.665 2.114-.614 1-1.438 1.909-2.159 2.838-1.803 2.319-3.434 4.777-5.348 7.01.476-3.166 2.341-6.127 4.093-8.733 1.788-2.659 3.87-5.247 6.822-6.653.21-.104-.971-.702-1.132-.754-.654-.213-1.294-.222-1.967-.076-1.236.268-2.384 1.128-3.355 1.901-.558.444-2.52 2.939-3.11 3.03.296-.047-1.807-.495-.967-.329-.677-.134-1.459-.07-2.126.058-4.351.832-7.846 5.194-10.915 8.07 2.477-4.332 5.797-8.222 8.941-12.08-.009.009-2.14-.345-2.588-.257-1.132.223-1.851.906-2.573 1.749-.602.703-1.364 2.375-2.14 2.82-.586.336-1.579-.496-2.539-.147-1.589.578-3.268 2.663-4.209 3.962-1.207 1.667-2.888 4.206-3.02 6.329-.336-3.01 1.221-6.338 2.555-8.942.455-.889.942-1.764 1.431-2.635.259-.462 1.153-1.494 1.124-1.952-.036-.57-.652-1.123-1.455-1.441-2.641-1.044-5.465 3.03-6.845 4.81-1.963 2.53-3.889 5.113-5.75 7.72 2.197-3.92 4.4-7.842 6.744-11.677.519-.849 1.406-1.857 1.744-2.799.302-.84.489-.71-.563-.95-2.09-.476-2.976.32-4.03 1.934-1.072 1.64-1.934 3.759-3.184 5.231-.567.668-.091.391-.784.5-.313.049-.904-.206-1.252-.225-.965-.053-1.964.161-2.844.553-3.533 1.575-6.614 4.996-8.834 8.07 1.126-3.384 2.409-6.607 4.309-9.644.422-.675 1.312-1.542 1.548-2.285.248-.779.621-.314-.11-.844-.988-.716-2.82-.212-3.6.494-2.476 2.241-3.938 5.794-4.673 8.977-.306 1.327-1 3.589-.32 4.87.311.369.659.698 1.045.987-.097.136-.194.271-.29.407-.004.107-.8 2.09-.145 2.09.73 0 2.043-2.144 2.547-2.663 1.268-1.305 2.63-2.513 4.03-3.673 2.584-2.141 5.387-4.455 8.467-5.839-1.206 2.502-2.235 5.083-3.239 7.671-.228.589-.491 1.174-.688 1.775-.316.959-.364 1.429 0 2.381-.006-.016.613 1.05.523 1.016.456.171 4.85-6.29 5.403-6.935 2.407-2.808 5.02-5.399 7.951-7.667-1.709 2.158-3.253 4.485-3.828 7.218-.416 1.981-.284 6.229 3.02 5.378 1.32-.34 2.175-2.996 2.984-4.135 1.65-2.325 3.535-4.59 5.759-6.389-1.582 2.518-2.832 5.295-3.418 8.221-.296 1.48-1.213 2.03-2.319 3.087-2.532 2.418-5.165 4.752-7.511 7.353-.925 1.026-2.497 2.237-2.069 3.826.636 2.36 3.764 2.173 5.464 1.393 2.818-1.293 5.237-3.119 7.237-5.49.843-.999 2.478-2.547 2.691-3.915.064-.414-.001-1.661-.465-1.916-.592-.325-.468.293-.871.696-.495-.55-.955-1.424-.892-2.192.086-1.044.93-1.484 1.706-2.167 1.318-1.161 2.66-2.297 4.03-3.392 2.634-2.099 5.654-4.542 8.829-5.737-1.605 2.473-4.896 8.546-.773 10.44 3.176 1.459 5.621-4.881 6.895-6.88-.566 1.678-.938 5.198.116 6.793.366.553 1.686 1.339 2.381 1.045.436-.184.572-1.075.804-1.604.904-2.066 2.419-3.97 3.919-5.635.911-1.011 1.913-1.959 2.947-2.842.673-.575 2.129-1.258 2.607-1.967-.077-.087-.155-.174-.232-.261m-33.09 14.834c.116.01.232.019.348.029-1.708 2.279-4.402 4.09-6.794 5.568-1.608.993-4.247 3.121-6.211 3.127 3.422-3.88 7.397-7.295 11.205-10.782.171.76.582 1.91 1.451 2.058"/></g></svg>